<svg width="128" height="128" viewBox="0 0 128 128" fill="none" xmlns="http://www.w3.org/2000/svg">
<path d="M72 4H4V124H96V28H72V4Z" fill="white"/>
<path d="M80 4H76V24H96V20H92V16H88V12H84V8H80V4Z" fill="white"/>
<path fill-rule="evenodd" clip-rule="evenodd" d="M52 46H48V48H42V50H36V52H32V54H28V72H32V62H36V64H38V76H40V78H42V80H60V78H62V76H64V64V62H70V60H74V54H70V52H64V50H58V48H52V46ZM58 76V74H60V64H58V66H52V68H48V66H42V74H44V76H58ZM58 60V62H52V64H48V62H42V60H38V58H32V56H38V54H42V52H48V50H52V52H58V54H64V56H70V58H64V60H58ZM32 74H28V80H32V74Z" fill="black"/>
<path fill-rule="evenodd" clip-rule="evenodd" d="M0 0H80V4H76V24H96V20H100V104H112V108H120V112H128V128H0V0ZM96 28H72V4H4V124H96V28Z" fill="black"/>
<path d="M92 16H96V20H92V16Z" fill="black"/>
<path d="M88 12H92V16H88V12Z" fill="black"/>
<path d="M84 8H88V12H84V8Z" fill="black"/>
<path d="M84 8V4H80V8H84Z" fill="black"/>
</svg>
